<svg xmlns="http://www.w3.org/2000/svg" width="512" height="780" viewBox="0 0 512 780">
<defs>
  <linearGradient id="g_indigo" x1="0" x2="1" y1="0" y2="1">
    <stop offset="0%" stop-color="#24213A"/>
    <stop offset="100%" stop-color="#17162A"/>
  </linearGradient>
  <linearGradient id="g_paper" x1="0" x2="0" y1="0" y2="1">
    <stop offset="0%" stop-color="#E8DCC5"/>
    <stop offset="100%" stop-color="#D8C6A7"/>
  </linearGradient>
  <filter id="softGlow" x="-50%" y="-50%" width="200%" height="200%">
    <feGaussianBlur stdDeviation="4" result="b"/>
    <feMerge><feMergeNode in="b"/><feMergeNode in="SourceGraphic"/></feMerge>
  </filter>
</defs>

<rect x="16" y="16" rx="24" width="480" height="744" fill="url(#g_indigo)" stroke="#C59A59" stroke-width="3"/>
<path d="M42 74 H470" stroke="#C59A59" stroke-width="2" opacity="0.7"/>
<g transform="translate(44,38)">
<rect x="0" y="0" width="44" height="30" rx="4" fill="#E8DCC5" stroke="#C59A59" stroke-width="2"/>
<path d="M2 4 L22 17 L42 4" fill="none" stroke="#2A2330" stroke-width="2"/>
</g>
<text x="108" y="64" fill="#F3EBDD" font-size="26" font-family="sans-serif" font-weight="700">의뢰함</text>
<text x="454" y="64" fill="#948AA8" font-size="20" font-family="sans-serif" text-anchor="end">4 / 10</text>
<g transform="translate(40,96)">
  <rect x="0" y="0" width="120" height="44" rx="10" fill="#514B86" stroke="#8A7BFF" stroke-width="2"/>
  <text x="60" y="29" fill="#F3EBDD" font-size="18" font-family="sans-serif" text-anchor="middle">전체</text>
  <rect x="132" y="0" width="120" height="44" rx="10" fill="#211F37"/>
  <text x="192" y="29" fill="#948AA8" font-size="18" font-family="sans-serif" text-anchor="middle">진행 중</text>
  <rect x="264" y="0" width="120" height="44" rx="10" fill="#211F37"/>
  <text x="324" y="29" fill="#948AA8" font-size="18" font-family="sans-serif" text-anchor="middle">완료</text>
</g>
<g transform="translate(36,164)">
  <rect x="0" y="0" width="440" height="110" rx="14" fill="url(#g_paper)" stroke="#E0BE7C" stroke-width="3"/>
  <rect x="14" y="14" width="82" height="82" rx="8" fill="#9B8A72"/>
  <circle cx="55" cy="55" r="24" fill="#C8B59A"/>
  <text x="112" y="40" fill="#2A2330" font-size="22" font-family="sans-serif" font-weight="700">잊힌 토끼의 꿈</text>
  <text x="112" y="68" fill="#5B5363" font-size="16" font-family="sans-serif">#인형  #상실  #어린 시절</text>
  <polygon points="404,42 420,58 404,74 388,58" fill="#776AD9" stroke="#C59A59" stroke-width="2"/>
</g>
<g transform="translate(36,290)">
  <rect x="0" y="0" width="440" height="92" rx="14" fill="#2A2840" stroke="#5C547D" stroke-width="2"/>
  <text x="28" y="38" fill="#F3EBDD" font-size="20" font-family="sans-serif">꺼지지 않는 불빛</text>
  <text x="28" y="66" fill="#948AA8" font-size="15" font-family="sans-serif">#등불  #불안  #어둠</text>
  <polygon points="404,30 418,44 404,58 390,44" fill="none" stroke="#776AD9" stroke-width="2"/>
</g>
<g transform="translate(36,398)">
  <rect x="0" y="0" width="440" height="92" rx="14" fill="#2A2840" stroke="#5C547D" stroke-width="2"/>
  <text x="28" y="38" fill="#F3EBDD" font-size="20" font-family="sans-serif">비를 피하는 우산</text>
  <text x="28" y="66" fill="#948AA8" font-size="15" font-family="sans-serif">#우산  #그리움  #이별</text>
</g>
<g transform="translate(36,506)">
  <rect x="0" y="0" width="440" height="92" rx="14" fill="#2A2840" stroke="#5C547D" stroke-width="2"/>
  <text x="28" y="38" fill="#F3EBDD" font-size="20" font-family="sans-serif">말하지 못한 편지</text>
  <text x="28" y="66" fill="#948AA8" font-size="15" font-family="sans-serif">#편지  #후회  #용서</text>
</g>

</svg>